<svg xmlns="http://www.w3.org/2000/svg" xmlns:xlink="http://www.w3.org/1999/xlink" version="1.1" x="0px" y="0px" viewBox="0 0 100 125" style="enable-background:new 0 0 100 100;" xml:space="preserve"><style type="text/css">
	.st0{fill:none;stroke:#000000;stroke-width:2;stroke-linecap:round;stroke-linejoin:round;stroke-miterlimit:10;}
	
		.st1{fill:none;stroke:#000000;stroke-width:2;stroke-linecap:round;stroke-linejoin:round;stroke-miterlimit:10;stroke-dasharray:2,4;}
	.st2{fill:none;stroke:#000000;stroke-width:2;stroke-linecap:round;stroke-linejoin:round;stroke-dasharray:2.9655,3.954;}
	.st3{fill:none;stroke:#000000;stroke-width:2;stroke-linecap:round;stroke-linejoin:round;}
	.st4{fill:none;stroke:#000000;stroke-width:2;stroke-linecap:round;stroke-linejoin:round;stroke-dasharray:2.7633,3.6844;}
	.st5{fill:none;stroke:#000000;stroke-width:2;stroke-linecap:round;stroke-linejoin:round;stroke-dasharray:1.9585,3.917;}
</style><path d="M89,9.965H11c-0.552,0-1,0.447-1,1s0.448,1,1,1h78c0.552,0,1-0.447,1-1S89.552,9.965,89,9.965z"/><path d="M89,18.047c0.552,0,1-0.447,1-1s-0.448-1-1-1H11c-0.552,0-1,0.447-1,1s0.448,1,1,1h11.904v4.894  c-2.417,0.469-4.25,2.597-4.25,5.149c0,2.895,2.355,5.25,5.25,5.25s5.25-2.355,5.25-5.25c0-2.552-1.833-4.68-4.25-5.149v-4.894  h24.107v34.428h-1.735c-3.489,0-6.334,2.78-6.453,6.24h-7.605c-0.119-3.46-2.964-6.24-6.453-6.24h-5.471  c-3.489,0-6.334,2.78-6.453,6.24H11c-0.552,0-1,0.447-1,1s0.448,1,1,1h3.829v11.378h-1.162c-0.552,0-1,0.447-1,1v3.457  c0,1.695,1.379,3.074,3.075,3.074h7.288v8.341H11c-0.552,0-1,0.447-1,1s0.448,1,1,1h78c0.552,0,1-0.447,1-1s-0.448-1-1-1H76.971  v-8.341h7.288c1.695,0,3.075-1.379,3.075-3.074v-3.457c0-0.553-0.448-1-1-1h-1.162V60.715h3.818c0.552,0,1-0.447,1-1s-0.448-1-1-1  h-3.83c-0.119-3.46-2.964-6.24-6.453-6.24h-5.471c-3.489,0-6.334,2.78-6.453,6.24h-7.584c-0.119-3.46-2.964-6.24-6.453-6.24h-1.735  V18.047h23.835v4.894c-2.417,0.469-4.25,2.597-4.25,5.149c0,2.895,2.355,5.25,5.25,5.25s5.25-2.355,5.25-5.25  c0-2.552-1.833-4.68-4.25-5.149v-4.894H89z M27.154,28.09c0,1.792-1.458,3.25-3.25,3.25s-3.25-1.458-3.25-3.25s1.458-3.25,3.25-3.25  S27.154,26.298,27.154,28.09z M59.21,60.715h7.561v11.378h-1.162c-0.552,0-1,0.447-1,1v1.766h-3.237v-1.766c0-0.553-0.448-1-1-1  H59.21V60.715z M59.373,74.093v2.457c0,0.593-0.482,1.074-1.074,1.074H41.723c-0.593,0-1.075-0.481-1.075-1.074v-2.457H59.373z   M39.648,72.093c-0.552,0-1,0.447-1,1v1.766h-3.258v-1.766c0-0.553-0.448-1-1-1h-1.162V60.715h7.582v11.378H39.648z M16.829,58.939  c0-2.461,2.003-4.464,4.465-4.464h5.471c2.461,0,4.464,2.003,4.464,4.464v13.154h-14.4V58.939z M14.667,76.55v-2.457h18.724v2.457  c0,0.593-0.482,1.074-1.075,1.074H15.741C15.148,77.625,14.667,77.143,14.667,76.55z M25.029,79.625h7.287  c1.59,0,2.886-1.217,3.044-2.766h3.32c0.157,1.549,1.454,2.766,3.044,2.766h7.288v8.341H25.029V79.625z M74.971,87.965h-23.96  v-8.341h7.288c1.59,0,2.886-1.217,3.043-2.766h3.299c0.157,1.549,1.454,2.766,3.044,2.766h7.287V87.965z M85.333,76.55  c0,0.593-0.482,1.074-1.075,1.074H67.684c-0.593,0-1.075-0.481-1.075-1.074v-2.457h18.724V76.55z M73.236,54.475h5.471  c2.462,0,4.465,2.003,4.465,4.464v13.154h-14.4V58.939C68.771,56.478,70.774,54.475,73.236,54.475z M57.21,58.939v13.154h-14.4  V58.939c0-2.461,2.003-4.464,4.465-4.464h5.471C55.208,54.475,57.21,56.478,57.21,58.939z M79.096,28.09  c0,1.792-1.458,3.25-3.25,3.25s-3.25-1.458-3.25-3.25s1.458-3.25,3.25-3.25S79.096,26.298,79.096,28.09z"/><path d="M17.491,45.422l2.917,2.917c0.195,0.195,0.451,0.293,0.707,0.293s0.512-0.098,0.707-0.293c0.391-0.391,0.391-1.023,0-1.414  l-2.917-2.917c-0.391-0.391-1.023-0.391-1.414,0S17.101,45.032,17.491,45.422z"/><path d="M25.991,48.117c0.256,0,0.512-0.098,0.707-0.293c0.391-0.391,0.391-1.023,0-1.414l-7.277-7.277  c-0.391-0.391-1.023-0.391-1.414,0s-0.391,1.023,0,1.414l7.277,7.277C25.479,48.019,25.735,48.117,25.991,48.117z"/><path d="M57.109,44.008c-0.391,0.391-0.391,1.023,0,1.414l2.917,2.917c0.195,0.195,0.451,0.293,0.707,0.293s0.512-0.098,0.707-0.293  c0.391-0.391,0.391-1.023,0-1.414l-2.917-2.917C58.133,43.618,57.5,43.618,57.109,44.008z"/><path d="M65.609,48.117c0.256,0,0.512-0.098,0.707-0.293c0.391-0.391,0.391-1.023,0-1.414l-7.277-7.277  c-0.391-0.391-1.023-0.391-1.414,0s-0.391,1.023,0,1.414l7.277,7.277C65.098,48.019,65.354,48.117,65.609,48.117z"/><text x="0" y="115" fill="#000000" font-size="5px" font-weight="bold" font-family="'Helvetica Neue', Helvetica, Arial-Unicode, Arial, Sans-serif">Created by Made</text><text x="0" y="120" fill="#000000" font-size="5px" font-weight="bold" font-family="'Helvetica Neue', Helvetica, Arial-Unicode, Arial, Sans-serif">from the Noun Project</text></svg>