<svg xmlns="http://www.w3.org/2000/svg" xmlns:xlink="http://www.w3.org/1999/xlink" version="1.1" x="0px" y="0px" viewBox="0 0 100 125" style="enable-background:new 0 0 100 100;" xml:space="preserve"><style type="text/css">
	.st0{fill:none;stroke:#000000;stroke-width:2;stroke-linecap:round;stroke-linejoin:round;stroke-miterlimit:10;}
	
		.st1{fill:none;stroke:#000000;stroke-width:2;stroke-linecap:round;stroke-linejoin:round;stroke-miterlimit:10;stroke-dasharray:2,4;}
	.st2{fill:none;stroke:#000000;stroke-width:2;stroke-linecap:round;stroke-linejoin:round;stroke-dasharray:2.9655,3.954;}
	.st3{fill:none;stroke:#000000;stroke-width:2;stroke-linecap:round;stroke-linejoin:round;}
	.st4{fill:none;stroke:#000000;stroke-width:2;stroke-linecap:round;stroke-linejoin:round;stroke-dasharray:2.7633,3.6844;}
	.st5{fill:none;stroke:#000000;stroke-width:2;stroke-linecap:round;stroke-linejoin:round;stroke-dasharray:1.9585,3.917;}
</style><path d="M11,55.712h15.442v23.312c-0.615-0.341-1.368-0.583-2.352-0.583c-2.027,0-3.09,1.02-3.942,1.839  c-0.775,0.744-1.335,1.281-2.557,1.281s-1.782-0.537-2.557-1.281c-0.853-0.819-1.914-1.839-3.941-1.839c-0.553,0-1,0.447-1,1  s0.447,1,1,1c1.222,0,1.782,0.537,2.557,1.281c0.853,0.819,1.914,1.839,3.941,1.839c2.026,0,3.089-1.02,3.941-1.839  c0.775-0.744,1.335-1.281,2.558-1.281c1.221,0,1.779,0.537,2.553,1.281c0.853,0.819,1.914,1.839,3.94,1.839s3.088-1.02,3.94-1.839  c0.774-0.744,1.334-1.281,2.556-1.281s1.781,0.537,2.557,1.281c0.853,0.819,1.915,1.839,3.942,1.839s3.09-1.02,3.942-1.839  c0.775-0.744,1.335-1.281,2.557-1.281c1.223,0,1.782,0.537,2.558,1.281c0.853,0.819,1.915,1.839,3.941,1.839  c2.028,0,3.09-1.02,3.943-1.839c0.775-0.744,1.335-1.281,2.558-1.281s1.782,0.537,2.557,1.281c0.853,0.819,1.914,1.839,3.94,1.839  c2.028,0,3.091-1.02,3.944-1.839c0.775-0.744,1.336-1.281,2.56-1.281c1.225,0,1.785,0.537,2.561,1.281  c0.854,0.819,1.917,1.839,3.946,1.839s3.092-1.02,3.946-1.838c0.775-0.744,1.337-1.282,2.562-1.282c0.553,0,1-0.447,1-1  s-0.447-1-1-1c-2.029,0-3.092,1.02-3.946,1.838c-0.775,0.744-1.337,1.282-2.562,1.282s-1.786-0.538-2.562-1.282  c-0.854-0.818-1.917-1.838-3.945-1.838c-0.974,0-1.722,0.238-2.334,0.573V55.712h15.442c0.553,0,1-0.447,1-1v-7.494  c0-0.553-0.447-1-1-1H73.745V34.381c2.808,5.166,8.284,8.681,14.565,8.681c0.553,0,1-0.447,1-1s-0.447-1-1-1  c-8.031,0-14.565-6.534-14.565-14.565v-4.775v-10.72c0-0.553-0.447-1-1-1h-7.086c-0.553,0-1,0.447-1,1v10.72v4.775  c0,8.031-6.534,14.565-14.565,14.565s-14.565-6.534-14.565-14.565v-4.775v-10.72c0-0.553-0.447-1-1-1h-7.086c-0.553,0-1,0.447-1,1  v10.72v4.775c0,8.031-6.534,14.565-14.565,14.565c-0.553,0-1,0.447-1,1s0.447,1,1,1c6.281,0,11.758-3.515,14.565-8.681v11.837H11  c-0.553,0-1,0.447-1,1v7.494C10,55.265,10.447,55.712,11,55.712z M30.584,81.561c-0.995,0-1.551-0.36-2.142-0.894V55.712h5.086  v24.202c-0.135,0.124-0.265,0.247-0.389,0.365C32.365,81.024,31.806,81.561,30.584,81.561z M59.136,80.28  c-0.775,0.744-1.335,1.281-2.559,1.281c-1.222,0-1.781-0.537-2.557-1.281c-0.853-0.819-1.915-1.839-3.942-1.839  c-2.026,0-3.089,1.02-3.941,1.839c-0.775,0.744-1.335,1.281-2.558,1.281s-1.782-0.537-2.558-1.281  c-0.853-0.819-1.915-1.839-3.941-1.839c-0.597,0-1.103,0.095-1.552,0.241v-22.97h29.131v22.98c-0.456-0.151-0.971-0.251-1.581-0.251  C61.051,78.441,59.989,79.46,59.136,80.28z M71.745,80.645c-0.601,0.547-1.159,0.916-2.17,0.916c-1.222,0-1.781-0.537-2.556-1.281  c-0.115-0.111-0.236-0.225-0.36-0.34V55.712h5.086V80.645z M66.659,12.001h5.086v9.72v4.775v19.722h-5.086V26.497v-4.775V12.001z   M50.094,43.062c6.281,0,11.758-3.515,14.565-8.681v11.837H35.528V34.381C38.336,39.547,43.812,43.062,50.094,43.062z   M28.442,26.497v-4.775v-9.72h5.086v9.72v4.775v19.722h-5.086V26.497z M12,48.218h76.188v5.494H12V48.218z"/><path d="M11.094,86.845c1.222,0,1.782,0.537,2.557,1.281c0.853,0.819,1.914,1.839,3.941,1.839c2.026,0,3.089-1.02,3.941-1.839  c0.775-0.744,1.335-1.281,2.558-1.281c1.221,0,1.779,0.537,2.553,1.281c0.853,0.819,1.914,1.839,3.94,1.839s3.088-1.02,3.94-1.839  c0.774-0.744,1.334-1.281,2.556-1.281s1.781,0.537,2.557,1.281c0.853,0.819,1.915,1.839,3.942,1.839s3.09-1.02,3.942-1.839  c0.775-0.744,1.335-1.281,2.557-1.281c1.223,0,1.782,0.537,2.558,1.281c0.853,0.819,1.915,1.839,3.941,1.839  c2.028,0,3.09-1.02,3.943-1.839c0.775-0.744,1.335-1.281,2.558-1.281s1.782,0.537,2.557,1.281c0.853,0.819,1.914,1.839,3.94,1.839  c2.028,0,3.091-1.02,3.944-1.839c0.775-0.744,1.336-1.281,2.56-1.281c1.225,0,1.785,0.537,2.561,1.281  c0.854,0.819,1.917,1.839,3.946,1.839s3.092-1.02,3.946-1.838c0.775-0.744,1.337-1.282,2.562-1.282c0.553,0,1-0.447,1-1  s-0.447-1-1-1c-2.029,0-3.092,1.02-3.946,1.838c-0.775,0.744-1.337,1.282-2.562,1.282s-1.786-0.538-2.562-1.282  c-0.854-0.818-1.917-1.838-3.945-1.838s-3.091,1.02-3.944,1.839c-0.775,0.744-1.336,1.281-2.56,1.281  c-1.222,0-1.781-0.537-2.556-1.281c-0.853-0.819-1.914-1.839-3.941-1.839s-3.089,1.02-3.942,1.839  c-0.775,0.744-1.335,1.281-2.559,1.281c-1.222,0-1.781-0.537-2.557-1.281c-0.853-0.819-1.915-1.839-3.942-1.839  c-2.026,0-3.089,1.02-3.941,1.839c-0.775,0.744-1.335,1.281-2.558,1.281s-1.782-0.537-2.558-1.281  c-0.853-0.819-1.915-1.839-3.941-1.839s-3.088,1.02-3.94,1.839c-0.774,0.744-1.334,1.281-2.556,1.281  c-1.221,0-1.78-0.537-2.555-1.281c-0.852-0.819-1.913-1.839-3.938-1.839c-2.027,0-3.09,1.02-3.942,1.839  c-0.775,0.744-1.335,1.281-2.557,1.281s-1.782-0.537-2.557-1.281c-0.853-0.819-1.914-1.839-3.941-1.839c-0.553,0-1,0.447-1,1  S10.541,86.845,11.094,86.845z"/><text x="0" y="115" fill="#000000" font-size="5px" font-weight="bold" font-family="'Helvetica Neue', Helvetica, Arial-Unicode, Arial, Sans-serif">Created by Made</text><text x="0" y="120" fill="#000000" font-size="5px" font-weight="bold" font-family="'Helvetica Neue', Helvetica, Arial-Unicode, Arial, Sans-serif">from the Noun Project</text></svg>