<svg xmlns="http://www.w3.org/2000/svg" xmlns:xlink="http://www.w3.org/1999/xlink" version="1.1" x="0px" y="0px" viewBox="0 0 100 125" style="enable-background:new 0 0 100 100;" xml:space="preserve"><style type="text/css">
	.st0{fill:none;stroke:#000000;stroke-width:2;stroke-linecap:round;stroke-linejoin:round;stroke-miterlimit:10;}
	
		.st1{fill:none;stroke:#000000;stroke-width:2;stroke-linecap:round;stroke-linejoin:round;stroke-miterlimit:10;stroke-dasharray:2,4;}
	.st2{fill:none;stroke:#000000;stroke-width:2;stroke-linecap:round;stroke-linejoin:round;stroke-dasharray:2.9655,3.954;}
	.st3{fill:none;stroke:#000000;stroke-width:2;stroke-linecap:round;stroke-linejoin:round;}
	.st4{fill:none;stroke:#000000;stroke-width:2;stroke-linecap:round;stroke-linejoin:round;stroke-dasharray:2.7633,3.6844;}
	.st5{fill:none;stroke:#000000;stroke-width:2;stroke-linecap:round;stroke-linejoin:round;stroke-dasharray:1.9585,3.917;}
</style><path d="M47.6,29.268c0.553,0,1-0.447,1-1v-7.784c0-0.553-0.447-1-1-1s-1,0.447-1,1v7.784C46.6,28.821,47.047,29.268,47.6,29.268z"/><path d="M40.361,44.647c0.553,0,1-0.447,1-1v-1.301c0-0.553-0.447-1-1-1s-1,0.447-1,1v1.301  C39.361,44.2,39.809,44.647,40.361,44.647z"/><path d="M44.87,44.647c0.553,0,1-0.447,1-1v-1.301c0-0.553-0.447-1-1-1s-1,0.447-1,1v1.301C43.87,44.2,44.317,44.647,44.87,44.647z"/><path d="M50.329,44.647c0.553,0,1-0.447,1-1v-1.301c0-0.553-0.447-1-1-1s-1,0.447-1,1v1.301  C49.329,44.2,49.776,44.647,50.329,44.647z"/><path d="M17.854,49.194c-0.553,0-1,0.447-1,1v1.301c0,0.553,0.447,1,1,1s1-0.447,1-1v-1.301  C18.854,49.641,18.406,49.194,17.854,49.194z"/><path d="M21.485,49.194c-0.553,0-1,0.447-1,1v1.301c0,0.553,0.447,1,1,1s1-0.447,1-1v-1.301  C22.485,49.641,22.038,49.194,21.485,49.194z"/><path d="M25.125,49.194c-0.553,0-1,0.447-1,1v1.301c0,0.553,0.447,1,1,1s1-0.447,1-1v-1.301  C26.125,49.641,25.678,49.194,25.125,49.194z"/><path d="M17.854,54.757c-0.553,0-1,0.447-1,1v1.301c0,0.553,0.447,1,1,1s1-0.447,1-1v-1.301  C18.854,55.205,18.406,54.757,17.854,54.757z"/><path d="M21.485,54.757c-0.553,0-1,0.447-1,1v1.301c0,0.553,0.447,1,1,1s1-0.447,1-1v-1.301  C22.485,55.205,22.038,54.757,21.485,54.757z"/><path d="M25.125,54.757c-0.553,0-1,0.447-1,1v1.301c0,0.553,0.447,1,1,1s1-0.447,1-1v-1.301  C26.125,55.205,25.678,54.757,25.125,54.757z"/><path d="M17.854,60.321c-0.553,0-1,0.447-1,1v1.3c0,0.553,0.447,1,1,1s1-0.447,1-1v-1.3C18.854,60.768,18.406,60.321,17.854,60.321z  "/><path d="M21.485,60.321c-0.553,0-1,0.447-1,1v1.3c0,0.553,0.447,1,1,1s1-0.447,1-1v-1.3C22.485,60.768,22.038,60.321,21.485,60.321z  "/><path d="M25.125,60.321c-0.553,0-1,0.447-1,1v1.3c0,0.553,0.447,1,1,1s1-0.447,1-1v-1.3C26.125,60.768,25.678,60.321,25.125,60.321z  "/><path d="M17.854,65.883c-0.553,0-1,0.447-1,1v1.301c0,0.553,0.447,1,1,1s1-0.447,1-1v-1.301  C18.854,66.331,18.406,65.883,17.854,65.883z"/><path d="M21.485,65.883c-0.553,0-1,0.447-1,1v1.301c0,0.553,0.447,1,1,1s1-0.447,1-1v-1.301  C22.485,66.331,22.038,65.883,21.485,65.883z"/><path d="M25.125,65.883c-0.553,0-1,0.447-1,1v1.301c0,0.553,0.447,1,1,1s1-0.447,1-1v-1.301  C26.125,66.331,25.678,65.883,25.125,65.883z"/><path d="M17.854,71.447c-0.553,0-1,0.447-1,1v1.301c0,0.553,0.447,1,1,1s1-0.447,1-1v-1.301  C18.854,71.894,18.406,71.447,17.854,71.447z"/><path d="M21.485,71.447c-0.553,0-1,0.447-1,1v1.301c0,0.553,0.447,1,1,1s1-0.447,1-1v-1.301  C22.485,71.894,22.038,71.447,21.485,71.447z"/><path d="M25.125,71.447c-0.553,0-1,0.447-1,1v1.301c0,0.553,0.447,1,1,1s1-0.447,1-1v-1.301  C26.125,71.894,25.678,71.447,25.125,71.447z"/><path d="M17.854,77.01c-0.553,0-1,0.447-1,1v1.3c0,0.553,0.447,1,1,1s1-0.447,1-1v-1.3C18.854,77.458,18.406,77.01,17.854,77.01z"/><path d="M21.485,77.01c-0.553,0-1,0.447-1,1v1.3c0,0.553,0.447,1,1,1s1-0.447,1-1v-1.3C22.485,77.458,22.038,77.01,21.485,77.01z"/><path d="M25.125,77.01c-0.553,0-1,0.447-1,1v1.3c0,0.553,0.447,1,1,1s1-0.447,1-1v-1.3C26.125,77.458,25.678,77.01,25.125,77.01z"/><path d="M17.854,82.573c-0.553,0-1,0.447-1,1v1.301c0,0.553,0.447,1,1,1s1-0.447,1-1v-1.301  C18.854,83.02,18.406,82.573,17.854,82.573z"/><path d="M21.485,82.573c-0.553,0-1,0.447-1,1v1.301c0,0.553,0.447,1,1,1s1-0.447,1-1v-1.301  C22.485,83.02,22.038,82.573,21.485,82.573z"/><path d="M25.125,82.573c-0.553,0-1,0.447-1,1v1.301c0,0.553,0.447,1,1,1s1-0.447,1-1v-1.301  C26.125,83.02,25.678,82.573,25.125,82.573z"/><path d="M70.618,60.321c-0.553,0-1,0.447-1,1v1.3c0,0.553,0.447,1,1,1s1-0.447,1-1v-1.3C71.618,60.768,71.171,60.321,70.618,60.321z  "/><path d="M74.257,60.321c-0.553,0-1,0.447-1,1v1.3c0,0.553,0.447,1,1,1s1-0.447,1-1v-1.3C75.257,60.768,74.81,60.321,74.257,60.321z"/><path d="M70.618,65.883c-0.553,0-1,0.447-1,1v1.301c0,0.553,0.447,1,1,1s1-0.447,1-1v-1.301  C71.618,66.331,71.171,65.883,70.618,65.883z"/><path d="M74.257,65.883c-0.553,0-1,0.447-1,1v1.301c0,0.553,0.447,1,1,1s1-0.447,1-1v-1.301  C75.257,66.331,74.81,65.883,74.257,65.883z"/><path d="M70.618,71.447c-0.553,0-1,0.447-1,1v1.301c0,0.553,0.447,1,1,1s1-0.447,1-1v-1.301  C71.618,71.894,71.171,71.447,70.618,71.447z"/><path d="M74.257,71.447c-0.553,0-1,0.447-1,1v1.301c0,0.553,0.447,1,1,1s1-0.447,1-1v-1.301  C75.257,71.894,74.81,71.447,74.257,71.447z"/><path d="M70.618,77.01c-0.553,0-1,0.447-1,1v1.3c0,0.553,0.447,1,1,1s1-0.447,1-1v-1.3C71.618,77.458,71.171,77.01,70.618,77.01z"/><path d="M74.257,77.01c-0.553,0-1,0.447-1,1v1.3c0,0.553,0.447,1,1,1s1-0.447,1-1v-1.3C75.257,77.458,74.81,77.01,74.257,77.01z"/><path d="M70.618,82.573c-0.553,0-1,0.447-1,1v1.301c0,0.553,0.447,1,1,1s1-0.447,1-1v-1.301  C71.618,83.02,71.171,82.573,70.618,82.573z"/><path d="M74.257,82.573c-0.553,0-1,0.447-1,1v1.301c0,0.553,0.447,1,1,1s1-0.447,1-1v-1.301  C75.257,83.02,74.81,82.573,74.257,82.573z"/><path d="M82.345,63.621c0.553,0,1-0.447,1-1v-1.3c0-0.553-0.447-1-1-1s-1,0.447-1,1v1.3C81.345,63.173,81.792,63.621,82.345,63.621z  "/><path d="M82.345,69.184c0.553,0,1-0.447,1-1v-1.301c0-0.553-0.447-1-1-1s-1,0.447-1,1v1.301  C81.345,68.737,81.792,69.184,82.345,69.184z"/><path d="M82.345,74.748c0.553,0,1-0.447,1-1v-1.301c0-0.553-0.447-1-1-1s-1,0.447-1,1v1.301  C81.345,74.3,81.792,74.748,82.345,74.748z"/><path d="M82.345,52.495c0.553,0,1-0.447,1-1v-1.301c0-0.553-0.447-1-1-1s-1,0.447-1,1v1.301  C81.345,52.047,81.792,52.495,82.345,52.495z"/><path d="M79.225,51.495v-1.301c0-0.553-0.447-1-1-1s-1,0.447-1,1v1.301c0,0.553,0.447,1,1,1S79.225,52.047,79.225,51.495z"/><path d="M82.345,58.058c0.553,0,1-0.447,1-1v-1.301c0-0.553-0.447-1-1-1s-1,0.447-1,1v1.301  C81.345,57.611,81.792,58.058,82.345,58.058z"/><path d="M82.345,80.31c0.553,0,1-0.447,1-1v-1.3c0-0.553-0.447-1-1-1s-1,0.447-1,1v1.3C81.345,79.863,81.792,80.31,82.345,80.31z"/><path d="M82.345,85.874c0.553,0,1-0.447,1-1v-1.301c0-0.553-0.447-1-1-1s-1,0.447-1,1v1.301  C81.345,85.426,81.792,85.874,82.345,85.874z"/><path d="M54.838,44.647c0.553,0,1-0.447,1-1v-1.301c0-0.553-0.447-1-1-1s-1,0.447-1,1v1.301  C53.838,44.2,54.285,44.647,54.838,44.647z"/><path d="M40.361,50.413c0.553,0,1-0.447,1-1v-1.3c0-0.553-0.447-1-1-1s-1,0.447-1,1v1.3C39.361,49.965,39.809,50.413,40.361,50.413z  "/><path d="M54.838,50.413c0.553,0,1-0.447,1-1v-1.3c0-0.553-0.447-1-1-1s-1,0.447-1,1v1.3C53.838,49.965,54.285,50.413,54.838,50.413z  "/><path d="M89,87.965h-1.688V44.978c0-0.553-0.447-1-1-1H74.257c-0.553,0-1,0.447-1,1v9.487H66.65c-0.553,0-1,0.447-1,1v32.5h-3.048  V53.801c0-0.553-0.447-1-1-1h-1.578V37.909c0-0.553-0.447-1-1-1h-0.832v-3.586c0-0.553-0.447-1-1-1h-0.997v-3.733  c0-0.553-0.447-1-1-1h-2.662V16.615c0-0.553-0.447-1-1-1H48.6v-4.649c0-0.553-0.447-1-1-1s-1,0.447-1,1v4.649h-2.934  c-0.553,0-1,0.447-1,1v10.975h-2.662c-0.553,0-1,0.447-1,1v3.733h-0.996c-0.553,0-1,0.447-1,1v3.586h-0.833c-0.553,0-1,0.447-1,1  v14.893h-1.577c-0.553,0-1,0.447-1,1v34.164H30V45.742c0-0.553-0.447-1-1-1H13.688c-0.553,0-1,0.447-1,1v42.224H11  c-0.553,0-1,0.447-1,1s0.447,1,1,1h78c0.553,0,1-0.447,1-1S89.553,87.965,89,87.965z M75.257,45.978h10.056v41.987h-6.088v-32.5  c0-0.553-0.447-1-1-1h-2.968V45.978z M67.65,56.465h9.574v31.5H67.65V56.465z M39.008,36.909v-2.586h0.996h15.191h0.997v2.586  H39.008z M43.666,29.589c0.553,0,1-0.447,1-1V17.615h5.867v10.975c0,0.553,0.447,1,1,1h2.662v2.733H41.004v-2.733H43.666z   M34.598,54.801h1.577c0.553,0,1-0.447,1-1V38.909h0.833h19.185h0.832v14.893c0,0.553,0.447,1,1,1h1.578v33.164h-4.765V53.788  c0-0.553-0.447-1-1-1s-1,0.447-1,1v34.178h-2.509V48.113c0-0.553-0.447-1-1-1s-1,0.447-1,1v39.853H45.87V48.113c0-0.553-0.447-1-1-1  s-1,0.447-1,1v39.853h-2.509V53.788c0-0.553-0.447-1-1-1s-1,0.447-1,1v34.178h-4.764V54.801z M14.688,46.742H28v41.224H14.688  V46.742z"/><text x="0" y="115" fill="#000000" font-size="5px" font-weight="bold" font-family="'Helvetica Neue', Helvetica, Arial-Unicode, Arial, Sans-serif">Created by Made</text><text x="0" y="120" fill="#000000" font-size="5px" font-weight="bold" font-family="'Helvetica Neue', Helvetica, Arial-Unicode, Arial, Sans-serif">from the Noun Project</text></svg>