<svg xmlns="http://www.w3.org/2000/svg" viewBox="0 0 100 125"><style/><path d="M11 55.712h15.442v23.312c-.615-.341-1.368-.583-2.352-.583-2.027 0-3.09 1.02-3.942 1.839-.775.744-1.335 1.281-2.557 1.281s-1.782-.537-2.557-1.281c-.853-.819-1.914-1.839-3.941-1.839a1 1 0 1 0 0 2c1.222 0 1.782.537 2.557 1.281.853.819 1.914 1.839 3.941 1.839 2.026 0 3.089-1.02 3.941-1.839.775-.744 1.335-1.281 2.558-1.281 1.221 0 1.779.537 2.553 1.281.853.819 1.914 1.839 3.94 1.839s3.088-1.02 3.94-1.839c.774-.744 1.334-1.281 2.556-1.281s1.781.537 2.557 1.281c.853.819 1.915 1.839 3.942 1.839s3.09-1.02 3.942-1.839c.775-.744 1.335-1.281 2.557-1.281 1.223 0 1.782.537 2.558 1.281.853.819 1.915 1.839 3.941 1.839 2.028 0 3.09-1.02 3.943-1.839.775-.744 1.335-1.281 2.558-1.281s1.782.537 2.557 1.281c.853.819 1.914 1.839 3.94 1.839 2.028 0 3.091-1.02 3.944-1.839.775-.744 1.336-1.281 2.56-1.281 1.225 0 1.785.537 2.561 1.281.854.819 1.917 1.839 3.946 1.839s3.092-1.02 3.946-1.838c.775-.744 1.337-1.282 2.562-1.282a1 1 0 1 0 0-2c-2.029 0-3.092 1.02-3.946 1.838-.775.744-1.337 1.282-2.562 1.282s-1.786-.538-2.562-1.282c-.854-.818-1.917-1.838-3.945-1.838-.974 0-1.722.238-2.334.573V55.712h15.442a1 1 0 0 0 1-1v-7.494a1 1 0 0 0-1-1H73.745V34.381c2.808 5.166 8.284 8.681 14.565 8.681a1 1 0 1 0 0-2c-8.031 0-14.565-6.534-14.565-14.565V11.002a1 1 0 0 0-1-1h-7.086a1 1 0 0 0-1 1v15.495c0 8.031-6.534 14.565-14.565 14.565s-14.565-6.534-14.565-14.565V11.002a1 1 0 0 0-1-1h-7.086a1 1 0 0 0-1 1v15.495c0 8.031-6.534 14.565-14.565 14.565a1 1 0 1 0 0 2c6.281 0 11.758-3.515 14.565-8.681v11.837H11a1 1 0 0 0-1 1v7.494a1 1 0 0 0 1 1zm19.584 25.849c-.995 0-1.551-.36-2.142-.894V55.712h5.086v24.202a30.09 30.09 0 0 0-.389.365c-.774.745-1.333 1.282-2.555 1.282zm28.552-1.281c-.775.744-1.335 1.281-2.559 1.281-1.222 0-1.781-.537-2.557-1.281-.853-.819-1.915-1.839-3.942-1.839-2.026 0-3.089 1.02-3.941 1.839-.775.744-1.335 1.281-2.558 1.281s-1.782-.537-2.558-1.281c-.853-.819-1.915-1.839-3.941-1.839-.597 0-1.103.095-1.552.241v-22.97h29.131v22.98a4.944 4.944 0 0 0-1.581-.251c-2.027 0-3.089 1.019-3.942 1.839zm12.609.365c-.601.547-1.159.916-2.17.916-1.222 0-1.781-.537-2.556-1.281a24.979 24.979 0 0 0-.36-.34V55.712h5.086v24.933zm-5.086-68.644h5.086v34.217h-5.086V12.001zM50.094 43.062c6.281 0 11.758-3.515 14.565-8.681v11.837H35.528V34.381c2.808 5.166 8.284 8.681 14.566 8.681zM28.442 26.497V12.002h5.086v34.217h-5.086V26.497zM12 48.218h76.188v5.494H12v-5.494zm-.906 38.627c1.222 0 1.782.537 2.557 1.281.853.819 1.914 1.839 3.941 1.839 2.026 0 3.089-1.02 3.941-1.839.775-.744 1.335-1.281 2.558-1.281 1.221 0 1.779.537 2.553 1.281.853.819 1.914 1.839 3.94 1.839s3.088-1.02 3.94-1.839c.774-.744 1.334-1.281 2.556-1.281s1.781.537 2.557 1.281c.853.819 1.915 1.839 3.942 1.839s3.09-1.02 3.942-1.839c.775-.744 1.335-1.281 2.557-1.281 1.223 0 1.782.537 2.558 1.281.853.819 1.915 1.839 3.941 1.839 2.028 0 3.09-1.02 3.943-1.839.775-.744 1.335-1.281 2.558-1.281s1.782.537 2.557 1.281c.853.819 1.914 1.839 3.94 1.839 2.028 0 3.091-1.02 3.944-1.839.775-.744 1.336-1.281 2.56-1.281 1.225 0 1.785.537 2.561 1.281.854.819 1.917 1.839 3.946 1.839s3.092-1.02 3.946-1.838c.775-.744 1.337-1.282 2.562-1.282a1 1 0 1 0 0-2c-2.029 0-3.092 1.02-3.946 1.838-.775.744-1.337 1.282-2.562 1.282s-1.786-.538-2.562-1.282c-.854-.818-1.917-1.838-3.945-1.838s-3.091 1.02-3.944 1.839c-.775.744-1.336 1.281-2.56 1.281-1.222 0-1.781-.537-2.556-1.281-.853-.819-1.914-1.839-3.941-1.839s-3.089 1.02-3.942 1.839c-.775.744-1.335 1.281-2.559 1.281-1.222 0-1.781-.537-2.557-1.281-.853-.819-1.915-1.839-3.942-1.839-2.026 0-3.089 1.02-3.941 1.839-.775.744-1.335 1.281-2.558 1.281s-1.782-.537-2.558-1.281c-.853-.819-1.915-1.839-3.941-1.839s-3.088 1.02-3.94 1.839c-.774.744-1.334 1.281-2.556 1.281-1.221 0-1.78-.537-2.555-1.281-.852-.819-1.913-1.839-3.938-1.839-2.027 0-3.09 1.02-3.942 1.839-.775.744-1.335 1.281-2.557 1.281s-1.782-.537-2.557-1.281c-.853-.819-1.914-1.839-3.941-1.839a1 1 0 1 0 0 2z"/><text y="115" font-size="5" font-weight="bold" font-family="'Helvetica Neue', Helvetica, Arial-Unicode, Arial, Sans-serif">Created by Made</text><text y="120" font-size="5" font-weight="bold" font-family="'Helvetica Neue', Helvetica, Arial-Unicode, Arial, Sans-serif">from the Noun Project</text></svg>