<svg xmlns="http://www.w3.org/2000/svg" viewBox="0 0 100 125"><style/><path d="M47.6 29.268a1 1 0 0 0 1-1v-7.784a1 1 0 1 0-2 0v7.784a1 1 0 0 0 1 1zm-7.239 15.379a1 1 0 0 0 1-1v-1.301a1 1 0 1 0-2 0v1.301a1 1 0 0 0 1 1zm4.509 0a1 1 0 0 0 1-1v-1.301a1 1 0 1 0-2 0v1.301a1 1 0 0 0 1 1zm5.459 0a1 1 0 0 0 1-1v-1.301a1 1 0 1 0-2 0v1.301a1 1 0 0 0 1 1zm-32.475 4.547a1 1 0 0 0-1 1v1.301a1 1 0 1 0 2 0v-1.301a1 1 0 0 0-1-1zm3.631 0a1 1 0 0 0-1 1v1.301a1 1 0 1 0 2 0v-1.301a1 1 0 0 0-1-1zm3.64 0a1 1 0 0 0-1 1v1.301a1 1 0 1 0 2 0v-1.301a1 1 0 0 0-1-1zm-7.271 5.563a1 1 0 0 0-1 1v1.301a1 1 0 1 0 2 0v-1.301a1 1 0 0 0-1-1zm3.631 0a1 1 0 0 0-1 1v1.301a1 1 0 1 0 2 0v-1.301a1 1 0 0 0-1-1zm3.64 0a1 1 0 0 0-1 1v1.301a1 1 0 1 0 2 0v-1.301a1 1 0 0 0-1-1zm-7.271 5.564a1 1 0 0 0-1 1v1.3a1 1 0 1 0 2 0v-1.3a1 1 0 0 0-1-1zm3.631 0a1 1 0 0 0-1 1v1.3a1 1 0 1 0 2 0v-1.3a1 1 0 0 0-1-1zm3.64 0a1 1 0 0 0-1 1v1.3a1 1 0 1 0 2 0v-1.3a1 1 0 0 0-1-1zm-7.271 5.562a1 1 0 0 0-1 1v1.301a1 1 0 1 0 2 0v-1.301a1 1 0 0 0-1-1zm3.631 0a1 1 0 0 0-1 1v1.301a1 1 0 1 0 2 0v-1.301a1 1 0 0 0-1-1zm3.64 0a1 1 0 0 0-1 1v1.301a1 1 0 1 0 2 0v-1.301a1 1 0 0 0-1-1zm-7.271 5.564a1 1 0 0 0-1 1v1.301a1 1 0 1 0 2 0v-1.301a1 1 0 0 0-1-1zm3.631 0a1 1 0 0 0-1 1v1.301a1 1 0 1 0 2 0v-1.301a1 1 0 0 0-1-1zm3.64 0a1 1 0 0 0-1 1v1.301a1 1 0 1 0 2 0v-1.301a1 1 0 0 0-1-1zm-7.271 5.563a1 1 0 0 0-1 1v1.3a1 1 0 1 0 2 0v-1.3a1 1 0 0 0-1-1zm3.631 0a1 1 0 0 0-1 1v1.3a1 1 0 1 0 2 0v-1.3a1 1 0 0 0-1-1zm3.64 0a1 1 0 0 0-1 1v1.3a1 1 0 1 0 2 0v-1.3a1 1 0 0 0-1-1zm-7.271 5.563a1 1 0 0 0-1 1v1.301a1 1 0 1 0 2 0v-1.301a1 1 0 0 0-1-1zm3.631 0a1 1 0 0 0-1 1v1.301a1 1 0 1 0 2 0v-1.301a1 1 0 0 0-1-1zm3.64 0a1 1 0 0 0-1 1v1.301a1 1 0 1 0 2 0v-1.301a1 1 0 0 0-1-1zm45.493-22.252a1 1 0 0 0-1 1v1.3a1 1 0 1 0 2 0v-1.3a1 1 0 0 0-1-1zm3.639 0a1 1 0 0 0-1 1v1.3a1 1 0 1 0 2 0v-1.3a1 1 0 0 0-1-1zm-3.639 5.562a1 1 0 0 0-1 1v1.301a1 1 0 1 0 2 0v-1.301a1 1 0 0 0-1-1zm3.639 0a1 1 0 0 0-1 1v1.301a1 1 0 1 0 2 0v-1.301a1 1 0 0 0-1-1zm-3.639 5.564a1 1 0 0 0-1 1v1.301a1 1 0 1 0 2 0v-1.301a1 1 0 0 0-1-1zm3.639 0a1 1 0 0 0-1 1v1.301a1 1 0 1 0 2 0v-1.301a1 1 0 0 0-1-1zm-3.639 5.563a1 1 0 0 0-1 1v1.3a1 1 0 1 0 2 0v-1.3a1 1 0 0 0-1-1zm3.639 0a1 1 0 0 0-1 1v1.3a1 1 0 1 0 2 0v-1.3a1 1 0 0 0-1-1zm-3.639 5.563a1 1 0 0 0-1 1v1.301a1 1 0 1 0 2 0v-1.301a1 1 0 0 0-1-1zm3.639 0a1 1 0 0 0-1 1v1.301a1 1 0 1 0 2 0v-1.301a1 1 0 0 0-1-1zm8.088-18.952a1 1 0 0 0 1-1v-1.3a1 1 0 1 0-2 0v1.3a1 1 0 0 0 1 1zm0 5.563a1 1 0 0 0 1-1v-1.301a1 1 0 1 0-2 0v1.301a1 1 0 0 0 1 1zm0 5.564a1 1 0 0 0 1-1v-1.301a1 1 0 1 0-2 0v1.301a1 1 0 0 0 1 1zm0-22.253a1 1 0 0 0 1-1v-1.301a1 1 0 1 0-2 0v1.301a1 1 0 0 0 1 1zm-3.12-1v-1.301a1 1 0 1 0-2 0v1.301a1 1 0 1 0 2 0zm3.12 6.563a1 1 0 0 0 1-1v-1.301a1 1 0 1 0-2 0v1.301a1 1 0 0 0 1 1zm0 22.252a1 1 0 0 0 1-1v-1.3a1 1 0 1 0-2 0v1.3a1 1 0 0 0 1 1zm0 5.564a1 1 0 0 0 1-1v-1.301a1 1 0 1 0-2 0v1.301a1 1 0 0 0 1 1zM54.838 44.647a1 1 0 0 0 1-1v-1.301a1 1 0 1 0-2 0v1.301a1 1 0 0 0 1 1zm-14.477 5.766a1 1 0 0 0 1-1v-1.3a1 1 0 1 0-2 0v1.3a1 1 0 0 0 1 1zm14.477 0a1 1 0 0 0 1-1v-1.3a1 1 0 1 0-2 0v1.3a1 1 0 0 0 1 1z"/><path d="M89 87.965h-1.688V44.978a1 1 0 0 0-1-1H74.257a1 1 0 0 0-1 1v9.487H66.65a1 1 0 0 0-1 1v32.5h-3.048V53.801a1 1 0 0 0-1-1h-1.578V37.909a1 1 0 0 0-1-1h-.832v-3.586a1 1 0 0 0-1-1h-.997V28.59a1 1 0 0 0-1-1h-2.662V16.615a1 1 0 0 0-1-1H48.6v-4.649a1 1 0 1 0-2 0v4.649h-2.934a1 1 0 0 0-1 1V27.59h-2.662a1 1 0 0 0-1 1v3.733h-.996a1 1 0 0 0-1 1v3.586h-.833a1 1 0 0 0-1 1v14.893h-1.577a1 1 0 0 0-1 1v34.164H30V45.742a1 1 0 0 0-1-1H13.688a1 1 0 0 0-1 1v42.224H11a1 1 0 1 0 0 2h78a1 1 0 1 0 0-2.001zM75.257 45.978h10.056v41.987h-6.088v-32.5a1 1 0 0 0-1-1h-2.968v-8.487zM67.65 56.465h9.574v31.5H67.65v-31.5zM39.008 36.909v-2.586h17.184v2.586H39.008zm4.658-7.32a1 1 0 0 0 1-1V17.615h5.867V28.59a1 1 0 0 0 1 1h2.662v2.733H41.004V29.59h2.662zm-9.068 25.212h1.577a1 1 0 0 0 1-1V38.909h20.85v14.893a1 1 0 0 0 1 1h1.578v33.164h-4.765V53.788a1 1 0 1 0-2 0v34.178h-2.509V48.113a1 1 0 1 0-2 0v39.853H45.87V48.113a1 1 0 1 0-2 0v39.853h-2.509V53.788a1 1 0 1 0-2 0v34.178h-4.764V54.801zm-19.91-8.059H28v41.224H14.688V46.742z"/><text y="115" font-size="5" font-weight="bold" font-family="'Helvetica Neue', Helvetica, Arial-Unicode, Arial, Sans-serif">Created by Made</text><text y="120" font-size="5" font-weight="bold" font-family="'Helvetica Neue', Helvetica, Arial-Unicode, Arial, Sans-serif">from the Noun Project</text></svg>