<svg xmlns="http://www.w3.org/2000/svg" viewBox="0 0 100 125"><style/><path d="M89 9.965H11a1 1 0 1 0 0 2h78a1 1 0 1 0 0-2zm0 8.082a1 1 0 1 0 0-2H11a1 1 0 1 0 0 2h11.904v4.894c-2.417.469-4.25 2.597-4.25 5.149 0 2.895 2.355 5.25 5.25 5.25s5.25-2.355 5.25-5.25c0-2.552-1.833-4.68-4.25-5.149v-4.894h24.107v34.428h-1.735c-3.489 0-6.334 2.78-6.453 6.24h-7.605c-.119-3.46-2.964-6.24-6.453-6.24h-5.471c-3.489 0-6.334 2.78-6.453 6.24H11a1 1 0 1 0 0 2h3.829v11.378h-1.162a1 1 0 0 0-1 1v3.457a3.078 3.078 0 0 0 3.075 3.074h7.288v8.341H11a1 1 0 1 0 0 2h78a1 1 0 1 0 0-2H76.971v-8.341h7.288a3.078 3.078 0 0 0 3.075-3.074v-3.457a1 1 0 0 0-1-1h-1.162V60.715h3.818a1 1 0 1 0 0-2h-3.83c-.119-3.46-2.964-6.24-6.453-6.24h-5.471c-3.489 0-6.334 2.78-6.453 6.24h-7.584c-.119-3.46-2.964-6.24-6.453-6.24h-1.735V18.047h23.835v4.894c-2.417.469-4.25 2.597-4.25 5.149 0 2.895 2.355 5.25 5.25 5.25s5.25-2.355 5.25-5.25c0-2.552-1.833-4.68-4.25-5.149v-4.894H89zM27.154 28.09c0 1.792-1.458 3.25-3.25 3.25s-3.25-1.458-3.25-3.25 1.458-3.25 3.25-3.25 3.25 1.458 3.25 3.25zM59.21 60.715h7.561v11.378h-1.162a1 1 0 0 0-1 1v1.766h-3.237v-1.766a1 1 0 0 0-1-1H59.21V60.715zm.163 13.378v2.457c0 .593-.482 1.074-1.074 1.074H41.723a1.075 1.075 0 0 1-1.075-1.074v-2.457h18.725zm-19.725-2a1 1 0 0 0-1 1v1.766H35.39v-1.766a1 1 0 0 0-1-1h-1.162V60.715h7.582v11.378h-1.162zM16.829 58.939a4.47 4.47 0 0 1 4.465-4.464h5.471a4.47 4.47 0 0 1 4.464 4.464v13.154h-14.4V58.939zM14.667 76.55v-2.457h18.724v2.457c0 .593-.482 1.074-1.075 1.074H15.741a1.074 1.074 0 0 1-1.074-1.074zm10.362 3.075h7.287c1.59 0 2.886-1.217 3.044-2.766h3.32a3.068 3.068 0 0 0 3.044 2.766h7.288v8.341H25.029v-8.341zm49.942 8.34h-23.96v-8.341h7.288c1.59 0 2.886-1.217 3.043-2.766h3.299a3.068 3.068 0 0 0 3.044 2.766h7.287v8.341zM85.333 76.55c0 .593-.482 1.074-1.075 1.074H67.684a1.075 1.075 0 0 1-1.075-1.074v-2.457h18.724v2.457zM73.236 54.475h5.471a4.47 4.47 0 0 1 4.465 4.464v13.154h-14.4V58.939a4.468 4.468 0 0 1 4.464-4.464zM57.21 58.939v13.154h-14.4V58.939a4.47 4.47 0 0 1 4.465-4.464h5.471a4.469 4.469 0 0 1 4.464 4.464zM79.096 28.09c0 1.792-1.458 3.25-3.25 3.25s-3.25-1.458-3.25-3.25 1.458-3.25 3.25-3.25 3.25 1.458 3.25 3.25z"/><path d="M17.491 45.422l2.917 2.917a.997.997 0 0 0 1.414 0 .999.999 0 0 0 0-1.414l-2.917-2.917a.999.999 0 1 0-1.414 1.414zm8.5 2.695a.999.999 0 0 0 .707-1.707l-7.277-7.277a.999.999 0 1 0-1.414 1.414l7.277 7.277a.997.997 0 0 0 .707.293zm31.118-4.109a.999.999 0 0 0 0 1.414l2.917 2.917a.997.997 0 0 0 1.414 0 .999.999 0 0 0 0-1.414l-2.917-2.917a1 1 0 0 0-1.414 0zm8.5 4.109a.999.999 0 0 0 .707-1.707l-7.277-7.277a.999.999 0 1 0-1.414 1.414l7.277 7.277a1 1 0 0 0 .707.293z"/><text y="115" font-size="5" font-weight="bold" font-family="'Helvetica Neue', Helvetica, Arial-Unicode, Arial, Sans-serif">Created by Made</text><text y="120" font-size="5" font-weight="bold" font-family="'Helvetica Neue', Helvetica, Arial-Unicode, Arial, Sans-serif">from the Noun Project</text></svg>