<svg xmlns="http://www.w3.org/2000/svg" xmlns:xlink="http://www.w3.org/1999/xlink" version="1.1" x="0px" y="0px" viewBox="0 0 100 125" style="enable-background:new 0 0 100 100;" xml:space="preserve"><path d="M52.9,85.7c1.8,1.8,4.1,2.7,6.6,2.7c2.5,0,4.8-1,6.6-2.7l2.7-2.7c1.6,1.3,3.5,1.9,5.4,1.9c2.2,0,4.5-0.9,6.2-2.6  c3.2-3.2,3.4-8.2,0.7-11.6l2.7-2.7c1.8-1.8,2.7-4.1,2.7-6.6c0-2.5-1-4.8-2.7-6.6L45.5,16.8c-1.8-1.8-4.1-2.7-6.6-2.7  c-2.5,0-4.8,1-6.6,2.7l-2.7,2.7c-3.4-2.7-8.5-2.5-11.6,0.7c-3.2,3.2-3.4,8.2-0.7,11.6l-2.7,2.7C13,36.2,12,38.5,12,41  c0,2.5,1,4.8,2.7,6.6L52.9,85.7z M33.8,18.2c2.8-2.8,7.4-2.8,10.3,0l38.2,38.2c2.8,2.8,2.8,7.4,0,10.3l-2.6,2.6L31.2,20.8L33.8,18.2  z M19.5,21.6c1.3-1.3,3-2,4.8-2c1.7,0,3.5,0.7,4.8,2l49.9,49.9c2.6,2.6,2.6,6.9,0,9.5c-2.6,2.6-6.9,2.6-9.5,0L19.5,31.1  C16.9,28.5,16.9,24.2,19.5,21.6z M16.2,35.9l2.6-2.6l48.4,48.4l-2.6,2.6c-2.8,2.8-7.4,2.8-10.3,0L16.2,46.1  C13.3,43.3,13.3,38.7,16.2,35.9z"/><path d="M29,31.9c1.8-0.3,3-0.4,4,0.6c1,1,0.9,2.2,0.6,4c-0.3,1.8-0.7,3.9,1.1,5.7c1.8,1.8,4,1.4,5.7,1.1c1.8-0.3,3-0.4,4,0.6  c1,1,0.9,2.2,0.6,4c-0.3,1.8-0.7,3.9,1.1,5.7c1.8,1.8,4,1.4,5.7,1.1c1.8-0.3,3-0.4,4,0.6c1,1,0.9,2.2,0.6,4  c-0.3,1.8-0.7,3.9,1.1,5.7c1.8,1.8,4,1.4,5.7,1.1c1.8-0.3,3-0.4,4,0.6c1,1,0.9,2.2,0.6,4c-0.3,1.8-0.7,3.9,1.1,5.7  c0.2,0.2,0.5,0.3,0.7,0.3s0.5-0.1,0.7-0.3c0.4-0.4,0.4-1,0-1.4c-1-1-0.9-2.2-0.6-4c0.3-1.8,0.7-3.9-1.1-5.7c-1.8-1.8-4-1.4-5.7-1.1  c-1.8,0.3-3,0.4-4-0.6c-1-1-0.9-2.2-0.6-4c0.3-1.8,0.7-3.9-1.1-5.7c-1.8-1.8-4-1.4-5.7-1.1c-1.8,0.3-3,0.4-4-0.6c-1-1-0.9-2.2-0.6-4  c0.3-1.8,0.7-3.9-1.1-5.7c-1.8-1.8-4-1.4-5.7-1.1c-1.8,0.3-3,0.4-4-0.6c-1-1-0.9-2.2-0.6-4c0.3-1.8,0.7-3.9-1.1-5.7  c-1.8-1.8-4-1.4-5.7-1.1c-1.8,0.3-3,0.4-4-0.6c-0.4-0.4-1-0.4-1.4,0s-0.4,1,0,1.4C25.1,32.6,27.3,32.2,29,31.9z"/><text x="0" y="115" fill="#000000" font-size="5px" font-weight="bold" font-family="'Helvetica Neue', Helvetica, Arial-Unicode, Arial, Sans-serif">Created by Made by Made</text><text x="0" y="120" fill="#000000" font-size="5px" font-weight="bold" font-family="'Helvetica Neue', Helvetica, Arial-Unicode, Arial, Sans-serif">from the Noun Project</text></svg>