<svg xmlns="http://www.w3.org/2000/svg" xmlns:xlink="http://www.w3.org/1999/xlink" version="1.1" x="0px" y="0px" viewBox="0 0 100 125" style="enable-background:new 0 0 100 100;" xml:space="preserve"><path d="M73.5,41l-8-10.7c-0.2-0.3-0.5-0.4-0.8-0.4l-31.4,0c-0.3,0-0.7,0.2-0.8,0.5l-7,10.7c0,0,0,0,0,0c0,0-0.1,0.1-0.1,0.1  C25.1,41.4,25,41.7,25,42L28.2,87c0,0.5,0.5,0.9,1,0.9h0l0,0l0,0l40,0c0.5,0,1-0.4,1-0.9l0-0.7c0-0.1,0-0.3,0-0.4l3.3-44  c0,0,0,0,0,0C73.7,41.7,73.7,41.3,73.5,41z M49.4,63.3L28.7,42.9l41.4,0L49.4,63.3z M49.4,65.9l18.5,20l-36.4,0L49.4,65.9z   M50.9,64.6l20.5-20.2l-2.9,39.3L50.9,64.6z M33.8,31.9l30.3,0l6.7,9l-42.9,0L33.8,31.9z M27.2,44.3l20.7,20.3l-17.8,20L27.2,44.3z"/><path d="M58.8,63.4h-2.7c-0.6,0-1,0.4-1,1s0.4,1,1,1h2.7c0.6,0,1-0.4,1-1S59.4,63.4,58.8,63.4z"/><path d="M39.8,65.4h2.7c0.6,0,1-0.4,1-1s-0.4-1-1-1h-2.7c-0.6,0-1,0.4-1,1S39.3,65.4,39.8,65.4z"/><path d="M81.6,20.8L54.1,20l-37.9-9.5c-0.5-0.1-1.1,0.2-1.2,0.7c-0.1,0.5,0.2,1.1,0.7,1.2l29.1,7.3l-29.3-0.9c0,0,0,0,0,0  c-0.5,0-1,0.4-1,1c0,0.6,0.4,1,1,1L53.8,22l26.3,6.6c0.1,0,0.2,0,0.2,0c0.4,0,0.9-0.3,1-0.8c0.1-0.5-0.2-1.1-0.7-1.2l-17.5-4.4  l18.4,0.5c0,0,0,0,0,0c0.5,0,1-0.4,1-1C82.6,21.3,82.1,20.9,81.6,20.8z"/><text x="0" y="115" fill="#000000" font-size="5px" font-weight="bold" font-family="'Helvetica Neue', Helvetica, Arial-Unicode, Arial, Sans-serif">Created by Made by Made</text><text x="0" y="120" fill="#000000" font-size="5px" font-weight="bold" font-family="'Helvetica Neue', Helvetica, Arial-Unicode, Arial, Sans-serif">from the Noun Project</text></svg>