<svg xmlns="http://www.w3.org/2000/svg" xmlns:xlink="http://www.w3.org/1999/xlink" version="1.1" x="0px" y="0px" viewBox="0 0 100 125" style="enable-background:new 0 0 100 100;" xml:space="preserve"><path d="M36,89h25.8c2.7,0,4.8-2.2,4.8-4.8v-49V35V24.8c0-0.7-0.3-1.3-0.9-1.7c-0.2-0.1-0.4-0.2-0.7-0.3c-0.3-2.3-2.1-4.1-4.4-4.5  c-0.7-2.6-3.1-4.3-5.8-4.3c-0.9,0-1.9,0.2-2.7,0.6c-1.3-2.1-3.6-3.4-6.1-3.4c-3.6,0-6.5,2.6-7.1,6c-3.3-0.1-6.1,2.4-6.4,5.6  c-0.2,0.1-0.4,0.1-0.6,0.3c-0.5,0.4-0.9,1-0.9,1.7v59.3C31.1,86.8,33.3,89,36,89z M61.8,87h-7.4c0.2-0.5,0.1-1-0.3-1.4  c-0.5-0.5-1.3-0.5-1.8,0C51.9,86,51.8,86.5,52,87H36c-1.6,0-2.8-1.3-2.8-2.8V79c0.5,0.3,1.1,0.3,1.6-0.2c0.5-0.5,0.5-1.3,0-1.8  c-0.4-0.4-1.1-0.5-1.6-0.2V63.7c0.5,0.5,1.3,0.5,1.8,0c0.5-0.5,0.5-1.3,0-1.8c-0.5-0.5-1.3-0.5-1.8,0V44.3c0.5,0.2,1.1,0.2,1.4-0.2  c0.5-0.5,0.5-1.3,0-1.8c-0.4-0.4-1-0.5-1.4-0.2V24.8l0.1-0.1l7,2.5c0,0,0,0-0.1,0c-0.5,0.5-0.5,1.3,0,1.8s1.3,0.5,1.8,0  c0.3-0.3,0.4-0.7,0.3-1.1L59.8,34c-0.2,0.1-0.4,0.1-0.6,0.3c-0.5,0.5-0.5,1.3,0,1.8c0.5,0.5,1.3,0.5,1.8,0c0.5-0.5,0.5-1.2,0.1-1.7  l3.5,1.2v10.7c-0.5-0.3-1.1-0.2-1.5,0.2c-0.5,0.5-0.5,1.3,0,1.8c0.4,0.4,1,0.5,1.5,0.2v24.7c-0.4-0.1-0.9,0-1.3,0.3  c-0.5,0.5-0.5,1.3,0,1.8c0.3,0.3,0.8,0.4,1.3,0.3v8.5C64.6,85.7,63.3,87,61.8,87z M64.5,24.7l-0.1-0.2c0,0,0,0,0,0L64.5,24.7  l0.1,8.9L52,29.2L64.5,24.7z M49,28.2l-8.7-3.1c2.7-1.6,9.7-4.7,17.2,0L49,28.2z M38.7,19.2c0.3,0,0.6,0,0.9,0.1  c0.3,0.1,0.6,0,0.8-0.2c0.2-0.2,0.4-0.5,0.4-0.8c0-2.8,2.4-5.2,5.2-5.2c2.1,0,4,1.3,4.8,3.2c0.1,0.3,0.4,0.5,0.7,0.6  c0.3,0.1,0.6,0,0.9-0.2c0.7-0.6,1.6-0.8,2.5-0.8c2,0,3.7,1.4,4,3.4c0.1,0.5,0.5,0.8,1,0.8c1.7,0,3,1.3,3.3,2.9l-3.3,1.2  c-10.7-7.9-21.1-0.6-21.9,0l-3.3-1.2C34.7,20.9,36.5,19.2,38.7,19.2z"/><ellipse transform="matrix(0.7071 -0.7071 0.7071 0.7071 -42.4205 55.0496)" cx="45.2" cy="78.7" rx="1.3" ry="1.3"/><ellipse transform="matrix(0.7071 -0.7071 0.7071 0.7071 -47.9197 52.7557)" cx="39.7" cy="84.2" rx="1.3" ry="1.3"/><ellipse transform="matrix(0.7071 -0.7071 0.7071 0.7071 -30.7599 48.9132)" cx="43.7" cy="61.6" rx="1.3" ry="1.3"/><ellipse transform="matrix(0.7071 -0.7071 0.7071 0.7071 -24.5389 47.3443)" cx="44.9" cy="53.3" rx="1.3" ry="1.3"/><ellipse transform="matrix(0.7071 -0.7071 0.7071 0.7071 -20.1124 41.4764)" cx="40" cy="45" rx="1.3" ry="1.3"/><ellipse transform="matrix(0.7071 -0.7071 0.7071 0.7071 -19.0703 50.3212)" cx="51.2" cy="48.2" rx="1.3" ry="1.3"/><ellipse transform="matrix(0.7071 -0.7071 0.7071 0.7071 -11.6327 40.2831)" cx="42.8" cy="34.2" rx="1.3" ry="1.3"/><ellipse transform="matrix(0.7071 -0.7071 0.7071 0.7071 -15.8489 44.9525)" cx="46.3" cy="41.6" rx="1.3" ry="1.3"/><ellipse transform="matrix(0.7071 -0.7071 0.7071 0.7071 -10.8231 47.8219)" cx="52.3" cy="37" rx="1.3" ry="1.3"/><ellipse transform="matrix(0.7071 -0.7071 0.7071 0.7071 -14.3003 35.5254)" cx="35.7" cy="35" rx="1.3" ry="1.3"/><ellipse transform="matrix(0.7071 -0.7071 0.7071 0.7071 -20.7269 57.763)" cx="59.4" cy="53.9" rx="1.3" ry="1.3"/><ellipse transform="matrix(0.7071 -0.7071 0.7071 0.7071 -13.6049 53.5)" cx="57.8" cy="43.2" rx="1.3" ry="1.3"/><ellipse transform="matrix(0.7071 -0.7071 0.7071 0.7071 -2.6196 51.981)" cx="61.4" cy="29.2" rx="1.3" ry="1.3"/><ellipse transform="matrix(0.7071 -0.7071 0.7071 0.7071 -38.5083 48.6553)" cx="39.5" cy="70.8" rx="1.3" ry="1.3"/><ellipse transform="matrix(0.7071 -0.7071 0.7071 0.7071 -36.0316 55.6275)" cx="49.1" cy="71.3" rx="1.3" ry="1.3"/><ellipse transform="matrix(0.7071 -0.7071 0.7071 0.7071 -41.5683 66.6113)" cx="59.6" cy="83.5" rx="1.3" ry="1.3"/><ellipse transform="matrix(0.7071 -0.7071 0.7071 0.7071 -38.0324 61.5184)" cx="55.2" cy="76.7" rx="1.3" ry="1.3"/><ellipse transform="matrix(0.7071 -0.7071 0.7071 0.7071 -26.7157 61.5561)" cx="60.9" cy="63" rx="1.3" ry="1.3"/><ellipse transform="matrix(0.7071 -0.7071 0.7071 0.7071 -31.2588 59.0839)" cx="55.7" cy="67.3" rx="1.3" ry="1.3"/><ellipse transform="matrix(0.7071 -0.7071 0.7071 0.7071 -27.9415 41.2483)" cx="35.8" cy="54.4" rx="1.3" ry="1.3"/><ellipse transform="matrix(0.7071 -0.7071 0.7071 0.7071 -24.94 54.1641)" cx="52.9" cy="57.2" rx="1.3" ry="1.3"/><text x="0" y="115" fill="#000000" font-size="5px" font-weight="bold" font-family="'Helvetica Neue', Helvetica, Arial-Unicode, Arial, Sans-serif">Created by Made by Made</text><text x="0" y="120" fill="#000000" font-size="5px" font-weight="bold" font-family="'Helvetica Neue', Helvetica, Arial-Unicode, Arial, Sans-serif">from the Noun Project</text></svg>