<svg xmlns="http://www.w3.org/2000/svg" xmlns:xlink="http://www.w3.org/1999/xlink" version="1.1" x="0px" y="0px" viewBox="0 0 100 125" style="enable-background:new 0 0 100 100;" xml:space="preserve"><circle cx="50" cy="29.5" r="1.3"/><circle cx="41.3" cy="51" r="1.3"/><circle cx="62.8" cy="45" r="1.3"/><circle cx="29.5" cy="33.2" r="1.3"/><circle cx="49.8" cy="76.2" r="1.3"/><path d="M48.8,12.8c-15.9,0-24.4,4.8-28.1,7.7c-1.4,1.1-1.9,3.1-1.2,4.8l3.5,8c0,0,0,0,0,0l23,52.9c0.6,1.4,1.9,2.2,3.4,2.2  c0,0,0,0,0,0c1.5,0,2.8-0.9,3.4-2.3l22-52.9c0,0,0,0,0,0l3.5-8c0.7-1.7,0.2-3.7-1.3-4.8C73.3,17.6,64.7,12.8,48.8,12.8z M50.9,85.5  c-0.3,0.7-0.9,1-1.6,1c0,0,0,0,0,0c-0.7,0-1.3-0.4-1.6-1l-23-52.9c-0.3-0.7-0.1-1.5,0.5-2c3-2.4,10.1-6.4,23.4-6.4  c13.4,0,20.6,4,23.6,6.4c0.6,0.5,0.8,1.3,0.5,2l0,0L50.9,85.5z M76.5,24.5l-2.2,5.1c-0.2-0.2-0.4-0.4-0.6-0.6  c-3.3-2.5-10.8-6.8-24.9-6.8c-14,0-21.5,4.2-24.7,6.8c-0.2,0.2-0.4,0.4-0.6,0.6l-2.2-5c-0.4-0.9-0.1-1.9,0.6-2.5  c3.5-2.7,11.5-7.3,26.9-7.3c15.4,0,23.6,4.6,27.1,7.3C76.6,22.7,76.8,23.7,76.5,24.5z"/><path d="M47.3,38.2c0-3.6-3-6.6-6.6-6.6s-6.6,3-6.6,6.6s3,6.6,6.6,6.6S47.3,41.9,47.3,38.2z M36.1,38.2c0-2.5,2.1-4.6,4.6-4.6  s4.6,2.1,4.6,4.6s-2.1,4.6-4.6,4.6S36.1,40.8,36.1,38.2z"/><path d="M53.7,44.3c-3.5,0-6.3,2.8-6.3,6.3c0,3.5,2.8,6.3,6.3,6.3s6.3-2.8,6.3-6.3C60.1,47.1,57.2,44.3,53.7,44.3z M53.7,54.9  c-2.4,0-4.3-1.9-4.3-4.3s1.9-4.3,4.3-4.3s4.3,1.9,4.3,4.3S56.1,54.9,53.7,54.9z"/><path d="M60.3,29.2c-2.9,0-5.3,2.4-5.3,5.3s2.4,5.3,5.3,5.3s5.3-2.4,5.3-5.3S63.2,29.2,60.3,29.2z M60.3,37.8  c-1.8,0-3.3-1.5-3.3-3.3s1.5-3.3,3.3-3.3s3.3,1.5,3.3,3.3S62.1,37.8,60.3,37.8z"/><path d="M49.4,61.4c-2.7,0-4.8,2.2-4.8,4.8s2.2,4.8,4.8,4.8s4.8-2.2,4.8-4.8S52.1,61.4,49.4,61.4z M49.4,69c-1.6,0-2.8-1.3-2.8-2.8  s1.3-2.8,2.8-2.8c1.6,0,2.8,1.3,2.8,2.8S51,69,49.4,69z"/><text x="0" y="115" fill="#000000" font-size="5px" font-weight="bold" font-family="'Helvetica Neue', Helvetica, Arial-Unicode, Arial, Sans-serif">Created by Made by Made</text><text x="0" y="120" fill="#000000" font-size="5px" font-weight="bold" font-family="'Helvetica Neue', Helvetica, Arial-Unicode, Arial, Sans-serif">from the Noun Project</text></svg>