<svg xmlns="http://www.w3.org/2000/svg" viewBox="0 0 100 125"><path d="M52.9 85.7c1.8 1.8 4.1 2.7 6.6 2.7s4.8-1 6.6-2.7l2.7-2.7c1.6 1.3 3.5 1.9 5.4 1.9 2.2 0 4.5-.9 6.2-2.6 3.2-3.2 3.4-8.2.7-11.6l2.7-2.7c1.8-1.8 2.7-4.1 2.7-6.6s-1-4.8-2.7-6.6l-38.3-38c-1.8-1.8-4.1-2.7-6.6-2.7s-4.8 1-6.6 2.7l-2.7 2.7c-3.4-2.7-8.5-2.5-11.6.7-3.2 3.2-3.4 8.2-.7 11.6l-2.7 2.7C13 36.2 12 38.5 12 41s1 4.8 2.7 6.6l38.2 38.1zM33.8 18.2c2.8-2.8 7.4-2.8 10.3 0l38.2 38.2c2.8 2.8 2.8 7.4 0 10.3l-2.6 2.6-48.5-48.5 2.6-2.6zm-14.3 3.4c1.3-1.3 3-2 4.8-2 1.7 0 3.5.7 4.8 2L79 71.5c2.6 2.6 2.6 6.9 0 9.5-2.6 2.6-6.9 2.6-9.5 0l-50-49.9c-2.6-2.6-2.6-6.9 0-9.5zm-3.3 14.3l2.6-2.6 48.4 48.4-2.6 2.6c-2.8 2.8-7.4 2.8-10.3 0L16.2 46.1c-2.9-2.8-2.9-7.4 0-10.2z"/><path d="M29 31.9c1.8-.3 3-.4 4 .6s.9 2.2.6 4c-.3 1.8-.7 3.9 1.1 5.7 1.8 1.8 4 1.4 5.7 1.1 1.8-.3 3-.4 4 .6s.9 2.2.6 4c-.3 1.8-.7 3.9 1.1 5.7 1.8 1.8 4 1.4 5.7 1.1 1.8-.3 3-.4 4 .6s.9 2.2.6 4c-.3 1.8-.7 3.9 1.1 5.7 1.8 1.8 4 1.4 5.7 1.1 1.8-.3 3-.4 4 .6s.9 2.2.6 4c-.3 1.8-.7 3.9 1.1 5.7.2.2.5.3.7.3s.5-.1.7-.3c.4-.4.4-1 0-1.4-1-1-.9-2.2-.6-4 .3-1.8.7-3.9-1.1-5.7-1.8-1.8-4-1.4-5.7-1.1-1.8.3-3 .4-4-.6s-.9-2.2-.6-4c.3-1.8.7-3.9-1.1-5.7-1.8-1.8-4-1.4-5.7-1.1-1.8.3-3 .4-4-.6s-.9-2.2-.6-4c.3-1.8.7-3.9-1.1-5.7-1.8-1.8-4-1.4-5.7-1.1-1.8.3-3 .4-4-.6s-.9-2.2-.6-4c.3-1.8.7-3.9-1.1-5.7-1.8-1.8-4-1.4-5.7-1.1-1.8.3-3 .4-4-.6-.4-.4-1-.4-1.4 0s-.4 1 0 1.4c1.8 1.8 4 1.4 5.7 1.1z"/><text y="115" font-size="5" font-weight="bold" font-family="'Helvetica Neue', Helvetica, Arial-Unicode, Arial, Sans-serif">Created by Made by Made</text><text y="120" font-size="5" font-weight="bold" font-family="'Helvetica Neue', Helvetica, Arial-Unicode, Arial, Sans-serif">from the Noun Project</text></svg>