<svg xmlns="http://www.w3.org/2000/svg" viewBox="0 0 100 125"><path d="M73.5 41l-8-10.7c-.2-.3-.5-.4-.8-.4H33.3c-.3 0-.7.2-.8.5l-7 10.7-.1.1c-.3.2-.4.5-.4.8l3.2 45c0 .5.5.9 1 .9h40c.5 0 1-.4 1-.9v-1.1l3.3-44c.2-.2.2-.6 0-.9zM49.4 63.3L28.7 42.9h41.4L49.4 63.3zm0 2.6l18.5 20H31.5l17.9-20zm1.5-1.3l20.5-20.2-2.9 39.3-17.6-19.1zM33.8 31.9h30.3l6.7 9H27.9l5.9-9zm-6.6 12.4l20.7 20.3-17.8 20-2.9-40.3z"/><path d="M58.8 63.4h-2.7c-.6 0-1 .4-1 1s.4 1 1 1h2.7c.6 0 1-.4 1-1s-.4-1-1-1zm-19 2h2.7c.6 0 1-.4 1-1s-.4-1-1-1h-2.7c-.6 0-1 .4-1 1s.5 1 1 1zm41.8-44.6L54.1 20l-37.9-9.5c-.5-.1-1.1.2-1.2.7-.1.5.2 1.1.7 1.2l29.1 7.3-29.3-.9c-.5 0-1 .4-1 1s.4 1 1 1L53.8 22l26.3 6.6h.2c.4 0 .9-.3 1-.8.1-.5-.2-1.1-.7-1.2l-17.5-4.4 18.4.5c.5 0 1-.4 1-1 .1-.4-.4-.8-.9-.9z"/><text y="115" font-size="5" font-weight="bold" font-family="'Helvetica Neue', Helvetica, Arial-Unicode, Arial, Sans-serif">Created by Made by Made</text><text y="120" font-size="5" font-weight="bold" font-family="'Helvetica Neue', Helvetica, Arial-Unicode, Arial, Sans-serif">from the Noun Project</text></svg>