<svg xmlns="http://www.w3.org/2000/svg" viewBox="0 0 100 125"><path d="M36 89h25.8c2.7 0 4.8-2.2 4.8-4.8V24.8c0-.7-.3-1.3-.9-1.7-.2-.1-.4-.2-.7-.3-.3-2.3-2.1-4.1-4.4-4.5-.7-2.6-3.1-4.3-5.8-4.3-.9 0-1.9.2-2.7.6-1.3-2.1-3.6-3.4-6.1-3.4-3.6 0-6.5 2.6-7.1 6-3.3-.1-6.1 2.4-6.4 5.6-.2.1-.4.1-.6.3-.5.4-.9 1-.9 1.7v59.3c.1 2.7 2.3 4.9 5 4.9zm25.8-2h-7.4c.2-.5.1-1-.3-1.4-.5-.5-1.3-.5-1.8 0-.4.4-.5.9-.3 1.4H36c-1.6 0-2.8-1.3-2.8-2.8V79c.5.3 1.1.3 1.6-.2s.5-1.3 0-1.8c-.4-.4-1.1-.5-1.6-.2V63.7c.5.5 1.3.5 1.8 0s.5-1.3 0-1.8-1.3-.5-1.8 0V44.3c.5.2 1.1.2 1.4-.2.5-.5.5-1.3 0-1.8-.4-.4-1-.5-1.4-.2V24.8l.1-.1 7 2.5h-.1c-.5.5-.5 1.3 0 1.8s1.3.5 1.8 0c.3-.3.4-.7.3-1.1L59.8 34c-.2.1-.4.1-.6.3-.5.5-.5 1.3 0 1.8s1.3.5 1.8 0 .5-1.2.1-1.7l3.5 1.2v10.7c-.5-.3-1.1-.2-1.5.2-.5.5-.5 1.3 0 1.8.4.4 1 .5 1.5.2v24.7c-.4-.1-.9 0-1.3.3-.5.5-.5 1.3 0 1.8.3.3.8.4 1.3.3v8.5c0 1.6-1.3 2.9-2.8 2.9zm2.7-62.3l-.1-.2.1.2.1 8.9L52 29.2l12.5-4.5zM49 28.2l-8.7-3.1c2.7-1.6 9.7-4.7 17.2 0L49 28.2zm-10.3-9c.3 0 .6 0 .9.1.3.1.6 0 .8-.2.2-.2.4-.5.4-.8 0-2.8 2.4-5.2 5.2-5.2 2.1 0 4 1.3 4.8 3.2.1.3.4.5.7.6.3.1.6 0 .9-.2.7-.6 1.6-.8 2.5-.8 2 0 3.7 1.4 4 3.4.1.5.5.8 1 .8 1.7 0 3 1.3 3.3 2.9l-3.3 1.2c-10.7-7.9-21.1-.6-21.9 0L34.7 23c0-2.1 1.8-3.8 4-3.8z"/><ellipse transform="rotate(-45.001 45.24 78.732)" cx="45.2" cy="78.7" rx="1.3" ry="1.3"/><ellipse transform="rotate(-45.001 39.721 84.223)" cx="39.7" cy="84.2" rx="1.3" ry="1.3"/><ellipse transform="rotate(-45.001 43.663 61.588)" cx="43.7" cy="61.6" rx="1.3" ry="1.3"/><ellipse transform="rotate(-45.001 44.88 53.294)" cx="44.9" cy="53.3" rx="1.3" ry="1.3"/><ellipse transform="rotate(-45.001 40.01 45.017)" cx="40" cy="45" rx="1.3" ry="1.3"/><ellipse transform="rotate(-45.001 51.208 48.181)" cx="51.2" cy="48.2" rx="1.3" ry="1.3"/><ellipse transform="rotate(-45.001 42.81 34.184)" cx="42.8" cy="34.2" rx="1.3" ry="1.3"/><ellipse transform="rotate(-45.001 46.338 41.608)" cx="46.3" cy="41.6" rx="1.3" ry="1.3"/><ellipse transform="rotate(-45.001 52.314 36.976)" cx="52.3" cy="37" rx="1.3" ry="1.3"/><ellipse transform="rotate(-45.001 35.733 35.025)" cx="35.7" cy="35" rx="1.3" ry="1.3"/><ellipse transform="rotate(-45.001 59.362 53.902)" cx="59.4" cy="53.9" rx="1.3" ry="1.3"/><ellipse transform="rotate(-45.001 57.778 43.173)" cx="57.8" cy="43.2" rx="1.3" ry="1.3"/><ellipse transform="rotate(-45.001 61.437 29.153)" cx="61.4" cy="29.2" rx="1.3" ry="1.3"/><ellipse transform="rotate(-45.001 39.477 70.812)" cx="39.5" cy="70.8" rx="1.3" ry="1.3"/><ellipse transform="rotate(-45.001 49.132 71.309)" cx="49.1" cy="71.3" rx="1.3" ry="1.3"/><ellipse transform="rotate(-45.001 59.622 83.484)" cx="59.6" cy="83.5" rx="1.3" ry="1.3"/><ellipse transform="rotate(-45.001 55.242 76.67)" cx="55.2" cy="76.7" rx="1.3" ry="1.3"/><ellipse transform="rotate(-45.001 60.946 63.028)" cx="60.9" cy="63" rx="1.3" ry="1.3"/><ellipse transform="rotate(-45.001 55.69 67.276)" cx="55.7" cy="67.3" rx="1.3" ry="1.3"/><ellipse transform="rotate(-45.001 35.82 54.353)" cx="35.8" cy="54.4" rx="1.3" ry="1.3"/><ellipse transform="rotate(-45.001 52.911 57.188)" cx="52.9" cy="57.2" rx="1.3" ry="1.3"/><text y="115" font-size="5" font-weight="bold" font-family="'Helvetica Neue', Helvetica, Arial-Unicode, Arial, Sans-serif">Created by Made by Made</text><text y="120" font-size="5" font-weight="bold" font-family="'Helvetica Neue', Helvetica, Arial-Unicode, Arial, Sans-serif">from the Noun Project</text></svg>