<svg xmlns="http://www.w3.org/2000/svg" viewBox="0 0 100 125"><circle cx="50" cy="29.5" r="1.3"/><circle cx="41.3" cy="51" r="1.3"/><circle cx="62.8" cy="45" r="1.3"/><circle cx="29.5" cy="33.2" r="1.3"/><circle cx="49.8" cy="76.2" r="1.3"/><path d="M48.8 12.8c-15.9 0-24.4 4.8-28.1 7.7-1.4 1.1-1.9 3.1-1.2 4.8l3.5 8 23 52.9c.6 1.4 1.9 2.2 3.4 2.2s2.8-.9 3.4-2.3l22-52.9 3.5-8c.7-1.7.2-3.7-1.3-4.8-3.7-2.8-12.3-7.6-28.2-7.6zm2.1 72.7c-.3.7-.9 1-1.6 1-.7 0-1.3-.4-1.6-1l-23-52.9c-.3-.7-.1-1.5.5-2 3-2.4 10.1-6.4 23.4-6.4 13.4 0 20.6 4 23.6 6.4.6.5.8 1.3.5 2L50.9 85.5zm25.6-61l-2.2 5.1-.6-.6c-3.3-2.5-10.8-6.8-24.9-6.8-14 0-21.5 4.2-24.7 6.8l-.6.6-2.2-5c-.4-.9-.1-1.9.6-2.5 3.5-2.7 11.5-7.3 26.9-7.3 15.4 0 23.6 4.6 27.1 7.3.7.6.9 1.6.6 2.4z"/><path d="M47.3 38.2c0-3.6-3-6.6-6.6-6.6s-6.6 3-6.6 6.6 3 6.6 6.6 6.6 6.6-2.9 6.6-6.6zm-11.2 0c0-2.5 2.1-4.6 4.6-4.6s4.6 2.1 4.6 4.6-2.1 4.6-4.6 4.6-4.6-2-4.6-4.6zm17.6 6.1c-3.5 0-6.3 2.8-6.3 6.3s2.8 6.3 6.3 6.3 6.3-2.8 6.3-6.3c.1-3.5-2.8-6.3-6.3-6.3zm0 10.6c-2.4 0-4.3-1.9-4.3-4.3s1.9-4.3 4.3-4.3 4.3 1.9 4.3 4.3-1.9 4.3-4.3 4.3zm6.6-25.7c-2.9 0-5.3 2.4-5.3 5.3s2.4 5.3 5.3 5.3 5.3-2.4 5.3-5.3-2.4-5.3-5.3-5.3zm0 8.6c-1.8 0-3.3-1.5-3.3-3.3s1.5-3.3 3.3-3.3 3.3 1.5 3.3 3.3-1.5 3.3-3.3 3.3zM49.4 61.4c-2.7 0-4.8 2.2-4.8 4.8s2.2 4.8 4.8 4.8 4.8-2.2 4.8-4.8-2.1-4.8-4.8-4.8zm0 7.6c-1.6 0-2.8-1.3-2.8-2.8s1.3-2.8 2.8-2.8c1.6 0 2.8 1.3 2.8 2.8S51 69 49.4 69z"/><text y="115" font-size="5" font-weight="bold" font-family="'Helvetica Neue', Helvetica, Arial-Unicode, Arial, Sans-serif">Created by Made by Made</text><text y="120" font-size="5" font-weight="bold" font-family="'Helvetica Neue', Helvetica, Arial-Unicode, Arial, Sans-serif">from the Noun Project</text></svg>